# xmcd
#
# Track frame offsets:
#	150
#	11239
#	20118
#	30258
#	41631
#	52258
#	66730
#	79420
#	88721
#	101406
#	113727
#	123797
#	132855
#	144498
#	155665
#	169499
#	180514
#	193824
#	206966
#	219052
#
# Disc length: 3047 seconds
#
# Revision: 2
# Processed by: cddbd v1.5.2PL0 Copyright (c) Steve Scherf et al.
# Submitted via: dBpowerAMP V4.0
#
DISCID=280be514
DTITLE=Various Artist - Country Spirit - CD3 At the saloon
DYEAR=2010
DGENRE=Country
TTITLE0=Wanda Jackson - I Gotta Know
TTITLE1=Buck Owens - Love's Gonna Live Here
TTITLE2=Chet Atkins - Country Gentleman
TTITLE3=Hank Locklin - Send Me the Pillow You Dream On
TTITLE4=Slim Whitman - Rose Marie
TTITLE5=The Kendalls - Markin' Believe
TTITLE6=Johnny Cash - Folsom Prison Blue
TTITLE7=Willie Nelson - One Step Beyond
TTITLE8=Ernie Ashworth - Talk Back Trembling Lips
TTITLE9=Merle Haggard - Okie from Muskogee
TTITLE10=Pee Wee King - Slow Poke
TTITLE11=Frankie Laine - High Noon
TTITLE12=Donna Fargo - The Happiest Girl in the USA
TTITLE13=Johnny Tillotson - Raining in My Heart
TTITLE14=Wayne Raney - Why don't You Haul off and Love Me
TTITLE15=Jack Greene - There Goes my Everything
TTITLE16=Alabama - Patches
TTITLE17=Lynn Anderson - Rose Garden
TTITLE18=Burl Ives - Funny Way Of Laughin'
TTITLE19=Tex Ritter - Froggy Went A Courtin'
EXTD=
EXTT0=
EXTT1=
EXTT2=
EXTT3=
EXTT4=
EXTT5=
EXTT6=
EXTT7=
EXTT8=
EXTT9=
EXTT10=
EXTT11=
EXTT12=
EXTT13=
EXTT14=
EXTT15=
EXTT16=
EXTT17=
EXTT18=
EXTT19=
PLAYORDER=
